<?xml version="1.0" encoding="UTF-8"?>
<svg id="Calque_2" data-name="Calque 2" xmlns="http://www.w3.org/2000/svg" viewBox="0 0 575.69 311.58">
  <defs>
    <style>
      .cls-1 {
        fill: #000;
        stroke-width: 0px;
      }
    </style>
  </defs>
  <g id="logo_noir" data-name="logo noir">
    <g id="logo_noir-2" data-name="logo noir">
      <path id="A" class="cls-1" d="M111.28,163.46v-23.39c-6.95,11.35-20.61,26.41-56.05,26.41C24.65,166.47.09,153.73.09,114.12s27.8-49.57,56.06-49.57h42.62c.69,3.94,1.16,9.5,1.16,16.68,0,4.17-.23,7.41-.92,10.42h-45.17c-12.74,0-24.09,3.71-24.09,21.31,0,21.54,8.11,26.41,33.36,26.41s45.86-15.52,45.86-60c0-40.07-13.9-51.65-47.25-51.65H17.7V.38h47.25c49.8,0,73.66,25.94,73.66,67.41v95.67h-27.33Z"/>
      <path id="R" class="cls-1" d="M236.84,101.94l73.9,61.89h-42.99l-74.64-61.89-.03-.03c-.39-2.12-.68-4.73-.87-7.78-.19-2.61-.29-5.57-.29-8.88,0-4.18.22-7.4.93-10.42h45.17c12.74,0,24.1-3.7,24.1-21.3,0-21.55-8.11-26.41-33.36-26.41-21.3,0-40.76,12.1-45,45.58v91.14h-30.5V.02h30.5v21.69c7.82-10.42,22.16-21.71,52.89-21.71s55.11,12.74,55.11,52.37-27.79,49.57-56.04,49.57h1.14Z"/>
      <path id="T" class="cls-1" d="M351.6,163.46V27.72h-51.42V.38h133.42v27.33h-51.19v135.74h-30.81Z"/>
      <path id="Y" class="cls-1" d="M448.28,163.46v-27.1h67.87c21.77,0,30.34-11.58,30.34-36.83h-46.79c-31.27,0-51.66-18.3-51.66-55.36V.38h29.42v43.09c0,23.86,6.49,30.34,31.5,30.34h37.53V.38h29.19v100.07c0,35.67-19.92,63.01-59.07,63.01h-68.33Z"/>
      <path id="L" class="cls-1" d="M0,311.58v-130.73h23.4v109h50.69v21.73H0Z"/>
      <path id="E" class="cls-1" d="M171,311.58v-21.91h-42.78c-16.72,0-22.53-6.31-22.53-19.5,0-11.33,7.39-17.83,17.78-17.83h42.6v-18.01h-41.01c-13.03,0-18.48-6.5-18.48-16.16,0-11.33,6.69-15.41,18.48-15.41h45.77v-21.91h-51.22c-27.99,0-36.26,17.08-36.26,32.87,0,18.38,9.68,25.81,17.78,28.04-9.33,2.79-19.01,10.58-19.01,31.01,0,21.91,11.79,38.81,41.36,38.81h47.53Z"/>
      <path id="I" class="cls-1" d="M184.17,311.58v-130.73h23.58v130.73h-23.58Z"/>
      <path id="S" class="cls-1" d="M224.79,311.58v-21.73h62.21c13.93,0,18.57-7.61,18.57-17.27,0-9.1-5.2-16.53-16.16-16.53h-26.74c-30.27,0-42.15-15.04-42.15-38.25s13.56-36.95,39-36.95h62.39v21.91h-58.49c-10.4,0-16.16,6.31-16.16,16.16s5.01,15.6,16.71,15.6h27.67c30.08,0,39.37,16.9,39.37,37.14,0,22.1-12.44,39.92-44.01,39.92h-62.21Z"/>
      <path id="O" class="cls-1" d="M517.38,180.86h-120.41c-36.07.06-58.21,25.47-58.21,65.19s22.14,65.3,58.21,65.37h120.41c36.12-.03,58.31-24.55,58.31-65.37s-22.19-65.17-58.31-65.19ZM517.38,290.28v.2h-120.32v-.2c-21.79-.03-35.74-15.43-35.74-44.23s13.23-44.22,35.74-44.25h0s120.32-.01,120.32-.01h0c22.51.04,35.75,16.15,35.75,44.26s-13.96,44.2-35.75,44.23Z"/>
    </g>
  </g>
</svg>