<?xml version="1.0" encoding="UTF-8"?>
<svg id="Calque_2" data-name="Calque 2" xmlns="http://www.w3.org/2000/svg" viewBox="0 0 575.68 324.08">
  <defs>
    <style>
      .cls-1 {
        fill: #1d1d1b;
        stroke-width: 0px;
      }
    </style>
  </defs>
  <g id="Calque_1-2" data-name="Calque 1">
    <g>
      <path class="cls-1" d="M55.22,166.47c35.44,0,49.11-15.06,56.05-26.41v23.4h27.33v-95.67C138.61,26.32,114.75.38,64.95.38H17.7v27.33h44.01c33.36,0,47.25,11.58,47.25,51.65,0,44.47-21.77,60-45.86,60s-33.36-4.87-33.36-26.41c0-17.61,11.35-21.31,24.09-21.31h45.17c.69-3.01.92-6.25.92-10.42,0-7.18-.46-12.74-1.16-16.68h-42.62C27.89,64.54.09,73.58.09,114.12s24.55,52.35,55.13,52.35Z"/>
      <path class="cls-1" d="M267.75,163.84h42.99l-73.9-61.89h-1.14c28.24,0,56.04-9.04,56.04-49.57S267.19,0,236.63,0s-45.07,11.29-52.89,21.71V.02h-30.5v163.82h30.5v-91.14c4.25-33.49,23.71-45.58,45-45.58,25.25,0,33.36,4.86,33.36,26.41,0,17.6-11.36,21.3-24.1,21.3h-45.17c-.71,3.02-.93,6.24-.93,10.42,0,3.31.1,6.27.29,8.88.19,3.06.48,5.66.87,7.78l.03.03,74.64,61.89Z"/>
      <polygon class="cls-1" points="351.6 163.46 382.41 163.46 382.41 27.72 433.6 27.72 433.6 .38 300.18 .38 300.18 27.72 351.6 27.72 351.6 163.46"/>
      <path class="cls-1" d="M546.5.38v73.43h-37.53c-25.02,0-31.5-6.49-31.5-30.34V.38h-29.42v43.78c0,37.06,20.39,55.36,51.66,55.36h46.79c0,25.25-8.57,36.83-30.34,36.83h-67.87v27.1h68.33c39.15,0,59.07-27.33,59.07-63.01V.38h-29.19Z"/>
      <polygon class="cls-1" points="25.14 181.05 0 181.05 0 321.49 79.59 321.49 79.59 298.15 25.14 298.15 25.14 181.05"/>
      <path class="cls-1" d="M113.54,278.3c0-12.17,7.94-19.15,19.1-19.15h45.76v-19.35h-44.06c-13.99,0-19.85-6.98-19.85-17.36,0-12.17,7.19-16.56,19.85-16.56h49.17v-23.54h-55.03c-30.07,0-38.95,18.35-38.95,35.31,0,19.75,10.4,27.73,19.1,30.12-10.02,2.99-20.42,11.37-20.42,33.31,0,23.54,12.67,41.69,44.44,41.69h51.06v-23.54h-45.95c-17.96,0-24.2-6.78-24.2-20.95Z"/>
      <rect class="cls-1" x="197.85" y="181.05" width="25.33" height="140.44"/>
      <path class="cls-1" d="M313.3,238.7h-29.72c-12.57,0-17.95-6.58-17.95-16.75s6.18-17.36,17.36-17.36h62.84v-23.54h-67.03c-27.33,0-41.89,15.36-41.89,39.7s12.77,41.09,45.28,41.09h28.72c11.77,0,17.36,7.98,17.36,17.76,0,10.37-4.99,18.55-19.95,18.55h-66.83v23.34h66.83c33.91,0,47.28-19.15,47.28-42.89,0-21.74-9.97-39.9-42.29-39.9Z"/>
      <path class="cls-1" d="M510.75,178.66h-81.51c-40.16.08-64.83,28.38-64.83,72.61s24.67,72.73,64.83,72.8h0s81.51,0,81.51,0c40.23-.03,64.94-27.34,64.94-72.81s-24.71-72.58-64.94-72.61ZM510.75,300.53v.23h-81.4v-.23c-24.27-.03-39.81-17.18-39.81-49.26s14.74-49.26,39.81-49.28h0s81.4,0,81.4,0h0c25.07.03,39.81,17.99,39.81,49.29s-15.54,49.23-39.81,49.26Z"/>
    </g>
  </g>
</svg>